<svg data-name="Layer 1" xmlns="http://www.w3.org/2000/svg" width="764.173" height="572.568"><path d="M731.173 531.568H156a33.037 33.037 0 01-33-33v-307a33.037 33.037 0 0133-33h575.173a33.037 33.037 0 0133 33v307a33.037 33.037 0 01-33 33z" fill="#fff"/><path d="M731.173 531.568H156a33.037 33.037 0 01-33-33v-307a33.037 33.037 0 0133-33h575.173a33.037 33.037 0 0133 33v307a33.037 33.037 0 01-33 33zM156 160.568a31.035 31.035 0 00-31 31v307a31.035 31.035 0 0031 31h575.173a31.035 31.035 0 0031-31v-307a31.035 31.035 0 00-31-31z" fill="#f2f2f2"/><path d="M731.173 507.568H156a9.01 9.01 0 01-9-9v-307a9.01 9.01 0 019-9h575.173a9.01 9.01 0 019 9v307a9.01 9.01 0 01-9 9zM156 184.568a7.008 7.008 0 00-7 7v307a7.008 7.008 0 007 7h575.173a7.008 7.008 0 007-7v-307a7.008 7.008 0 00-7-7z" fill="#f2f2f2"/><path d="M584.785 509.03L28.814 361.654A33.037 33.037 0 015.37 321.299l78.663-296.75a33.037 33.037 0 0140.354-23.444L680.36 148.483a33.037 33.037 0 0123.443 40.354l-78.663 296.75a33.037 33.037 0 01-40.354 23.444z" fill="#f2f2f2"/><path d="M584.785 509.03L28.814 361.654A33.037 33.037 0 015.37 321.299l78.663-296.75a33.037 33.037 0 0140.354-23.444L680.36 148.483a33.037 33.037 0 0123.443 40.354l-78.663 296.75a33.037 33.037 0 01-40.354 23.444zM123.875 3.04A31.035 31.035 0 0085.968 25.06L7.304 321.81a31.035 31.035 0 0022.022 37.909l555.971 147.377a31.035 31.035 0 0037.908-22.022l78.664-296.75a31.035 31.035 0 00-22.022-37.909z" fill="#e6e6e6"/><path d="M590.934 485.832L34.964 338.454a9.01 9.01 0 01-6.394-11.005l78.663-296.751a9.01 9.01 0 0111.006-6.394l555.97 147.378a9.01 9.01 0 016.394 11.005L601.94 479.438a9.01 9.01 0 01-11.006 6.394zM117.726 26.237a7.008 7.008 0 00-8.56 4.973L30.503 327.961a7.008 7.008 0 004.973 8.56l555.97 147.378a7.008 7.008 0 008.56-4.973l78.664-296.751a7.008 7.008 0 00-4.973-8.56z" fill="#fff"/><path d="M608.173 572.568H33a33.037 33.037 0 01-33-33v-307a33.037 33.037 0 0133-33h575.173a33.037 33.037 0 0133 33v307a33.037 33.037 0 01-33 33z" fill="#fff"/><path d="M451.904 546.568H80.474c-.465.002-.93-.01-1.388-.036l175.67-98.933c3.345-1.923 10.85-2.6 16.762-1.512a15.183 15.183 0 014.649 1.512l117.896 66.392 5.648 3.177z" fill="#e6e6e6"/><path d="M569.086 546.568H247.83l62.253-29.4 4.48-2.118 81.122-38.315c5.318-2.51 18.112-2.667 24.365-.473q.63.224 1.168.473z" fill="#e6e6e6"/><path d="M33 201.568a31.035 31.035 0 00-31 31v307a31.035 31.035 0 0031 31h575.173a31.035 31.035 0 0031-31v-307a31.035 31.035 0 00-31-31z" fill="#3f3d56"/><path d="M608.173 548.568H33a9.01 9.01 0 01-9-9v-307a9.01 9.01 0 019-9h575.173a9.01 9.01 0 019 9v307a9.01 9.01 0 01-9 9zM33 225.568a7.008 7.008 0 00-7 7v307a7.008 7.008 0 007 7h575.173a7.008 7.008 0 007-7v-307a7.008 7.008 0 00-7-7z" fill="#ccc"/><circle cx="480.017" cy="217.859" r="61.903" fill="#ff6584"/><ellipse cx="505.896" cy="345.099" rx="78.403" ry="98.137" fill="#f2f2f2"/><path fill="#ccc" d="M506.112 325.365h.215l3.877 222.285h-8.185l4.093-222.285z"/><path d="M519.484 472.525a1.939 1.939 0 01-.812 2.618l-11.245 5.92-1.806-3.43 11.245-5.92a1.939 1.939 0 012.618.812z" fill="#ccc"/><ellipse cx="280.49" cy="345.099" rx="78.403" ry="98.137" fill="#f2f2f2"/><path d="M294.078 476.2a1.939 1.939 0 00-2.619-.812l-7.85 4.133-2.689-154.156h-.215l-4.092 222.286h8.184l-1.112-63.788 9.58-5.045a1.94 1.94 0 00.813-2.618z" fill="#ccc"/><path d="M392.92 118.937c54.867 0 99.462 103.382 99.462 172.059s-44.478 124.35-99.345 124.35-99.345-55.673-99.345-124.35 44.361-172.06 99.228-172.06z" fill="#66fcf1"/><path d="M410.255 456.115a2.456 2.456 0 00-3.318-1.03l-9.947 5.238-3.407-195.332h-.272l-5.186 281.66h10.371l-1.41-80.827 12.14-6.391a2.456 2.456 0 001.029-3.318z" fill="#3f3d56"/><path d="M610.173 570.568H35a33.037 33.037 0 01-33-33v-307a33.037 33.037 0 0133-33h575.173a33.037 33.037 0 0133 33v307a33.037 33.037 0 01-33 33z" fill="#fff"/><path d="M453.904 544.568H82.474c-.465.002-.93-.01-1.388-.036l175.67-98.933c3.345-1.923 10.85-2.6 16.762-1.512a15.183 15.183 0 014.649 1.512l117.896 66.392 5.648 3.177z" fill="#e6e6e6"/><path d="M571.086 544.568H249.83l62.253-29.4 4.48-2.118 81.122-38.315c5.318-2.51 18.112-2.667 24.365-.473q.63.224 1.168.473z" fill="#e6e6e6"/><path d="M610.173 570.568H35a33.037 33.037 0 01-33-33v-307a33.037 33.037 0 0133-33h575.173a33.037 33.037 0 0133 33v307a33.037 33.037 0 01-33 33zM35 199.568a31.035 31.035 0 00-31 31v307a31.035 31.035 0 0031 31h575.173a31.035 31.035 0 0031-31v-307a31.035 31.035 0 00-31-31z" fill="#3f3d56"/><path d="M610.173 546.568H35a9.01 9.01 0 01-9-9v-307a9.01 9.01 0 019-9h575.173a9.01 9.01 0 019 9v307a9.01 9.01 0 01-9 9zM35 223.568a7.008 7.008 0 00-7 7v307a7.008 7.008 0 007 7h575.173a7.008 7.008 0 007-7v-307a7.008 7.008 0 00-7-7z" fill="#ccc"/><circle cx="482.017" cy="215.859" r="61.903" fill="#222"/><ellipse cx="507.896" cy="343.099" rx="78.403" ry="98.137" fill="#f2f2f2"/><path fill="#ccc" d="M508.112 323.365h.215l3.877 222.285h-8.185l4.093-222.285z"/><path d="M521.484 470.525a1.939 1.939 0 01-.812 2.618l-11.245 5.92-1.806-3.43 11.245-5.92a1.939 1.939 0 012.618.812z" fill="#ccc"/><ellipse cx="282.49" cy="343.099" rx="78.403" ry="98.137" fill="#f2f2f2"/><path d="M296.078 474.2a1.939 1.939 0 00-2.619-.812l-7.85 4.133-2.689-154.156h-.215l-4.092 222.286h8.184l-1.112-63.788 9.58-5.045a1.94 1.94 0 00.813-2.618z" fill="#ccc"/><path d="M394.92 116.937c54.867 0 99.462 103.382 99.462 172.059s-44.478 124.35-99.345 124.35-99.345-55.673-99.345-124.35 44.361-172.06 99.228-172.06z" fill="#66fcf1"/><path d="M412.255 454.115a2.456 2.456 0 00-3.318-1.03l-9.947 5.238-3.407-195.332h-.272l-5.186 281.66h10.371l-1.41-80.827 12.14-6.391a2.456 2.456 0 001.029-3.318z" fill="#3f3d56"/></svg>